<svg width="960" height="957" viewBox="0 0 960 957" fill="none" xmlns="http://www.w3.org/2000/svg">
<g clip-path="url(#clip0_7066_3626)">
<path d="M462.489 -0.202227C463.738 -0.209286 464.988 -0.216346 466.275 -0.223619C470.288 -0.241148 474.3 -0.248312 478.313 -0.249102C478.998 -0.249396 479.682 -0.249691 480.387 -0.249994C501.078 -0.251433 521.485 0.0156541 542.001 3.0009C543.401 3.19656 544.801 3.39185 546.202 3.58684C592.199 10.0867 636.551 23.18 679.001 42.0009C679.96 42.4258 680.919 42.8507 681.907 43.2885C696.096 49.6531 709.58 57.1626 723.001 65.0009C723.887 65.5144 724.774 66.028 725.687 66.5571C737.572 73.457 748.934 80.8548 760.001 89.0009C760.697 89.5119 761.394 90.0228 762.111 90.5492C770.606 96.7994 778.921 103.219 787.001 110.001C788.036 110.86 789.071 111.72 790.106 112.579C802.094 122.572 813.328 133.238 824.376 144.251C824.85 144.723 825.325 145.194 825.814 145.68C831.435 151.278 836.862 156.958 842.001 163.001C842.986 164.131 843.971 165.26 844.958 166.388C851.602 174.045 857.959 181.858 864.001 190.001C864.492 190.66 864.983 191.32 865.488 191.999C883.75 216.639 899.18 242.647 913.001 270.001C913.406 270.799 913.81 271.598 914.227 272.42C943.046 329.801 959.962 397.259 960.204 461.524C960.211 462.776 960.218 464.028 960.225 465.318C960.243 469.337 960.25 473.357 960.251 477.376C960.251 478.404 960.251 478.404 960.252 479.452C960.253 499.789 960.014 519.841 957.001 540.001C956.805 541.385 956.609 542.77 956.415 544.154C944.883 625.308 913.122 702.963 863.001 768.001C862.589 768.539 862.177 769.077 861.753 769.631C854.519 779.065 846.901 788.118 839.001 797.001C838.542 797.519 838.083 798.037 837.61 798.571C830.604 806.443 823.188 813.915 815.751 821.376C815.279 821.851 814.807 822.325 814.321 822.814C808.724 828.435 803.048 833.868 797.001 839.001C795.991 839.878 794.982 840.756 793.974 841.634C785.244 849.109 776.213 856.131 767.001 863.001C766.272 863.545 765.543 864.09 764.792 864.651C698.919 913.637 620.432 944.075 539.126 954.251C538.461 954.334 537.797 954.417 537.112 954.503C523.912 956.135 510.821 957.154 497.513 957.204C496.263 957.211 495.014 957.218 493.727 957.225C489.714 957.243 485.701 957.25 481.688 957.251C481.004 957.251 480.32 957.252 479.615 957.252C458.924 957.253 438.516 956.986 418.001 954.001C416.601 953.805 415.2 953.61 413.8 953.415C367.803 946.915 323.451 933.822 281.001 915.001C279.563 914.364 279.563 914.364 278.095 913.713C263.905 907.349 250.421 899.839 237.001 892.001C236.114 891.487 235.228 890.974 234.315 890.445C222.43 883.545 211.067 876.147 200.001 868.001C199.304 867.49 198.608 866.979 197.891 866.453C189.396 860.202 181.08 853.783 173.001 847.001C171.966 846.141 170.931 845.282 169.895 844.423C157.908 834.429 146.674 823.764 135.626 812.751C135.151 812.279 134.677 811.807 134.188 811.321C128.567 805.724 123.14 800.043 118.001 794.001C117.016 792.871 116.031 791.742 115.044 790.614C108.4 782.956 102.043 775.144 96.0009 767.001C95.5101 766.341 95.0193 765.682 94.5136 765.002C76.2518 740.363 60.8223 714.355 47.0009 687.001C46.5963 686.203 46.1917 685.404 45.7748 684.581C16.9554 627.201 0.0397424 559.743 -0.202234 495.477C-0.209293 494.226 -0.216353 492.974 -0.223627 491.684C-0.24115 487.664 -0.248319 483.645 -0.249109 479.626C-0.249403 478.941 -0.24969 478.255 -0.249994 477.549C-0.251407 457.213 -0.0124464 437.161 3.00089 417.001C3.19707 415.617 3.39234 414.232 3.58683 412.848C15.119 331.694 46.8802 254.038 97.0009 189.001C97.4127 188.463 97.8246 187.925 98.2489 187.371C105.483 177.936 113.101 168.883 121.001 160.001C121.46 159.483 121.919 158.964 122.392 158.431C129.398 150.559 136.813 143.087 144.251 135.626C144.723 135.151 145.195 134.677 145.681 134.188C151.277 128.567 156.954 123.134 163.001 118.001C164.01 117.124 165.02 116.246 166.028 115.368C174.757 107.893 183.789 100.871 193.001 94.0009C193.73 93.4564 194.458 92.912 195.209 92.351C261.083 43.3646 339.57 12.9266 420.876 2.7509C421.54 2.66772 422.205 2.58455 422.89 2.49885C436.09 0.866529 449.18 -0.151979 462.489 -0.202227Z" fill="#1A1B1B"/>
<path d="M670 229C694.42 229 718.84 229 744 229C744.09 285.826 744.162 342.652 744.204 399.478C744.209 406.184 744.214 412.889 744.219 419.594C744.22 420.262 744.22 420.929 744.221 421.617C744.238 443.248 744.268 464.879 744.305 486.511C744.344 509.368 744.368 532.226 744.376 555.084C744.381 568.779 744.399 582.473 744.431 596.168C744.452 605.553 744.459 614.938 744.454 624.323C744.451 629.742 744.455 635.16 744.476 640.579C744.496 645.538 744.497 650.496 744.483 655.455C744.482 657.251 744.487 659.047 744.499 660.842C744.515 663.281 744.507 665.719 744.492 668.158C744.508 669.206 744.508 669.206 744.524 670.275C744.45 675.66 742.977 678.664 740 683C735.123 687.03 730.542 687.573 724.375 687.481C723.532 687.484 722.689 687.488 721.82 687.491C719.009 687.498 716.198 687.476 713.387 687.454C711.366 687.453 709.345 687.454 707.324 687.456C701.848 687.457 696.371 687.434 690.894 687.406C685.168 687.381 679.441 687.378 673.714 687.373C662.873 687.361 652.033 687.328 641.192 687.288C628.849 687.243 616.505 687.221 604.162 687.201C578.774 687.159 553.387 687.086 528 687C528 699.87 528 712.74 528 726C533.416 725.954 538.833 725.907 544.414 725.859C547.85 725.839 551.286 725.82 554.722 725.805C560.174 725.781 565.625 725.753 571.076 725.698C575.472 725.655 579.868 725.631 584.265 725.62C585.94 725.613 587.615 725.599 589.29 725.577C591.641 725.548 593.991 725.544 596.342 725.546C597.031 725.532 597.72 725.517 598.43 725.502C603.389 725.544 606.224 726.831 610 730C611.77 732.868 612.243 734.98 612.195 738.328C612.188 739.127 612.182 739.927 612.175 740.75C612.159 741.575 612.142 742.4 612.125 743.25C612.116 744.09 612.107 744.931 612.097 745.797C612.074 747.865 612.038 749.932 612 752C578.512 752.023 545.024 752.041 511.537 752.051C507.587 752.052 503.638 752.054 499.689 752.055C498.903 752.055 498.116 752.055 497.306 752.056C484.558 752.06 471.81 752.068 459.062 752.077C445.991 752.086 432.92 752.092 419.849 752.094C411.777 752.095 403.705 752.1 395.633 752.108C389.454 752.114 383.275 752.114 377.096 752.113C374.554 752.113 372.011 752.115 369.469 752.119C366.014 752.124 362.559 752.123 359.104 752.12C358.084 752.123 357.064 752.126 356.012 752.129C355.094 752.127 354.176 752.125 353.23 752.123C352.032 752.124 352.032 752.124 350.81 752.124C349 752 349 752 348 751C347.818 748.255 347.721 745.56 347.687 742.812C347.658 742.056 347.629 741.3 347.599 740.521C347.539 735.217 348.402 732.152 352 728C355.586 725.545 359.241 725.73 363.43 725.773C364.172 725.773 364.914 725.772 365.678 725.772C368.124 725.773 370.57 725.789 373.015 725.805C374.713 725.808 376.412 725.811 378.11 725.813C382.575 725.821 387.04 725.841 391.505 725.863C396.865 725.887 402.225 725.896 407.584 725.908C415.723 725.927 423.861 725.965 432 726C432 713.13 432 700.26 432 687C422.649 687.047 422.649 687.047 413.109 687.095C392.537 687.195 371.966 687.261 351.394 687.311C338.918 687.342 326.443 687.384 313.968 687.453C303.094 687.512 292.221 687.551 281.348 687.565C275.59 687.572 269.833 687.591 264.075 687.634C258.655 687.675 253.236 687.688 247.816 687.679C245.828 687.68 243.839 687.692 241.851 687.715C239.133 687.745 236.418 687.738 233.7 687.722C232.915 687.739 232.13 687.756 231.321 687.774C226.092 687.689 223.191 686.344 219.45 682.665C214.355 676.815 214.572 671.161 214.619 663.765C214.614 662.629 214.609 661.493 214.604 660.322C214.592 656.513 214.602 652.704 214.611 648.895C214.609 646.164 214.602 643.434 214.595 640.704C214.582 634.058 214.585 627.411 214.594 620.764C214.601 615.362 214.601 609.96 214.598 604.558C214.598 603.789 214.597 603.02 214.597 602.227C214.596 600.665 214.595 599.103 214.594 597.541C214.585 582.893 214.595 568.246 214.611 553.598C214.625 541.031 214.622 528.464 214.609 515.897C214.592 501.302 214.586 486.707 214.595 472.112C214.596 470.555 214.597 468.999 214.598 467.442C214.599 466.676 214.599 465.911 214.6 465.122C214.602 459.726 214.598 454.331 214.591 448.935C214.582 442.36 214.585 435.784 214.601 429.209C214.608 425.854 214.61 422.5 214.602 419.145C214.593 415.508 214.604 411.872 214.619 408.235C214.612 407.175 214.605 406.115 214.598 405.023C214.649 398.663 215.205 393.969 219.754 389.137C220.35 388.658 220.947 388.18 221.562 387.688C222.162 387.196 222.761 386.705 223.379 386.199C226.121 384.17 227.825 383.875 231.181 383.877C232.063 383.875 232.945 383.873 233.853 383.871C235.315 383.875 235.315 383.875 236.807 383.88C237.838 383.879 238.869 383.878 239.931 383.877C243.407 383.875 246.883 383.881 250.359 383.886C252.842 383.887 255.326 383.887 257.809 383.886C263.166 383.886 268.523 383.889 273.88 383.894C281.626 383.902 289.372 383.905 297.118 383.906C309.684 383.908 322.25 383.915 334.817 383.925C347.025 383.934 359.234 383.941 371.443 383.945C372.572 383.945 372.572 383.945 373.723 383.946C377.496 383.947 381.27 383.948 385.043 383.95C416.362 383.96 447.681 383.978 479 384C479 373.44 479 362.88 479 352C497.15 352 515.3 352 534 352C534 369.49 534 386.98 534 405C544.56 405 555.12 405 566 405C566 371.67 566 338.34 566 304C590.42 304 614.84 304 640 304C640 337 640 370 640 404C649.9 404 659.8 404 670 404C670 346.25 670 288.5 670 229Z" fill="#1A1A1A"/>
<path d="M670 229C694.42 229 718.84 229 744 229C744.09 285.826 744.162 342.652 744.204 399.478C744.209 406.184 744.214 412.889 744.219 419.594C744.22 420.262 744.22 420.929 744.221 421.617C744.238 443.248 744.268 464.879 744.305 486.511C744.344 509.368 744.368 532.226 744.376 555.084C744.381 568.779 744.399 582.473 744.431 596.168C744.452 605.553 744.459 614.938 744.454 624.323C744.451 629.742 744.455 635.16 744.476 640.579C744.496 645.538 744.497 650.496 744.483 655.455C744.482 657.251 744.487 659.047 744.499 660.842C744.515 663.281 744.507 665.719 744.492 668.158C744.508 669.206 744.508 669.206 744.524 670.275C744.45 675.66 742.977 678.664 740 683C735.123 687.03 730.542 687.573 724.375 687.481C723.532 687.484 722.689 687.488 721.82 687.491C719.009 687.498 716.198 687.476 713.387 687.454C711.366 687.453 709.345 687.454 707.324 687.456C701.848 687.457 696.371 687.434 690.894 687.406C685.168 687.381 679.441 687.378 673.714 687.373C662.873 687.361 652.033 687.328 641.192 687.288C628.849 687.243 616.505 687.221 604.162 687.201C578.774 687.159 553.387 687.086 528 687C528 699.87 528 712.74 528 726C533.416 725.954 538.833 725.907 544.414 725.859C547.85 725.839 551.286 725.82 554.722 725.805C560.174 725.781 565.625 725.753 571.076 725.698C575.472 725.655 579.868 725.631 584.265 725.62C585.94 725.613 587.615 725.599 589.29 725.577C591.641 725.548 593.991 725.544 596.342 725.546C597.031 725.532 597.72 725.517 598.43 725.502C603.389 725.544 606.224 726.831 610 730C611.77 732.868 612.243 734.98 612.195 738.328C612.188 739.127 612.182 739.927 612.175 740.75C612.159 741.575 612.142 742.4 612.125 743.25C612.116 744.09 612.107 744.931 612.097 745.797C612.074 747.865 612.038 749.932 612 752C578.512 752.023 545.024 752.041 511.537 752.051C507.587 752.052 503.638 752.054 499.689 752.055C498.903 752.055 498.116 752.055 497.306 752.056C484.558 752.06 471.81 752.068 459.062 752.077C445.991 752.086 432.92 752.092 419.849 752.094C411.777 752.095 403.705 752.1 395.633 752.108C389.454 752.114 383.275 752.114 377.096 752.113C374.554 752.113 372.011 752.115 369.469 752.119C366.014 752.124 362.559 752.123 359.104 752.12C358.084 752.123 357.064 752.126 356.012 752.129C355.094 752.127 354.176 752.125 353.23 752.123C352.032 752.124 352.032 752.124 350.81 752.124C349 752 349 752 348 751C347.818 748.255 347.721 745.56 347.687 742.812C347.658 742.056 347.629 741.3 347.599 740.521C347.539 735.217 348.402 732.152 352 728C355.586 725.545 359.241 725.73 363.43 725.773C364.172 725.773 364.914 725.772 365.678 725.772C368.124 725.773 370.57 725.789 373.015 725.805C374.713 725.808 376.412 725.811 378.11 725.813C382.575 725.821 387.04 725.841 391.505 725.863C396.865 725.887 402.225 725.896 407.584 725.908C415.723 725.927 423.861 725.965 432 726C432 713.13 432 700.26 432 687C422.649 687.047 422.649 687.047 413.109 687.095C392.537 687.195 371.966 687.261 351.394 687.311C338.918 687.342 326.443 687.384 313.968 687.453C303.094 687.512 292.221 687.551 281.348 687.565C275.59 687.572 269.833 687.591 264.075 687.634C258.655 687.675 253.236 687.688 247.816 687.679C245.828 687.68 243.839 687.692 241.851 687.715C239.133 687.745 236.418 687.738 233.7 687.722C232.915 687.739 232.13 687.756 231.321 687.774C226.092 687.689 223.191 686.344 219.45 682.665C214.355 676.815 214.572 671.161 214.619 663.765C214.614 662.629 214.609 661.493 214.604 660.322C214.592 656.513 214.602 652.704 214.611 648.895C214.609 646.164 214.602 643.434 214.595 640.704C214.582 634.058 214.585 627.411 214.594 620.764C214.601 615.362 214.601 609.96 214.598 604.558C214.598 603.789 214.597 603.02 214.597 602.227C214.596 600.665 214.595 599.103 214.594 597.541C214.585 582.893 214.595 568.246 214.611 553.598C214.625 541.031 214.622 528.464 214.609 515.897C214.592 501.302 214.586 486.707 214.595 472.112C214.596 470.555 214.597 468.999 214.598 467.442C214.599 466.676 214.599 465.911 214.6 465.122C214.602 459.726 214.598 454.331 214.591 448.935C214.582 442.36 214.585 435.784 214.601 429.209C214.608 425.854 214.61 422.5 214.602 419.145C214.593 415.508 214.604 411.872 214.619 408.235C214.612 407.175 214.605 406.115 214.598 405.023C214.649 398.663 215.205 393.969 219.754 389.137C220.35 388.658 220.947 388.18 221.562 387.688C222.162 387.196 222.761 386.705 223.379 386.199C226.121 384.17 227.825 383.875 231.181 383.877C232.063 383.875 232.945 383.873 233.853 383.871C235.315 383.875 235.315 383.875 236.807 383.88C237.838 383.879 238.869 383.878 239.931 383.877C243.407 383.875 246.883 383.881 250.359 383.886C252.842 383.887 255.326 383.887 257.809 383.886C263.166 383.886 268.523 383.889 273.88 383.894C281.626 383.902 289.372 383.905 297.118 383.906C309.684 383.908 322.25 383.915 334.817 383.925C347.025 383.934 359.234 383.941 371.443 383.945C372.572 383.945 372.572 383.945 373.723 383.946C377.496 383.947 381.27 383.948 385.043 383.95C416.362 383.96 447.681 383.978 479 384C479 373.44 479 362.88 479 352C497.15 352 515.3 352 534 352C534 369.49 534 386.98 534 405C544.56 405 555.12 405 566 405C566 371.67 566 338.34 566 304C590.42 304 614.84 304 640 304C640 337 640 370 640 404C649.9 404 659.8 404 670 404C670 346.25 670 288.5 670 229ZM248 417C247.897 420.055 247.861 423.087 247.866 426.142C247.864 427.114 247.861 428.085 247.859 429.086C247.853 432.367 247.854 435.648 247.854 438.929C247.851 441.271 247.848 443.613 247.844 445.955C247.835 452.335 247.833 458.715 247.832 465.095C247.832 469.742 247.829 474.389 247.826 479.036C247.817 491.524 247.813 504.011 247.814 516.499C247.814 517.209 247.814 517.919 247.814 518.65C247.814 519.361 247.814 520.071 247.814 520.804C247.815 532.326 247.805 543.848 247.791 555.37C247.777 567.187 247.77 579.005 247.771 590.823C247.771 597.463 247.768 604.103 247.758 610.742C247.748 616.985 247.748 623.226 247.755 629.469C247.756 631.766 247.754 634.063 247.748 636.36C247.74 639.484 247.745 642.607 247.752 645.731C247.747 646.65 247.742 647.57 247.737 648.517C247.527 653.243 247.527 653.243 250 657C252.505 657.197 254.899 657.268 257.406 657.252C258.182 657.255 258.958 657.258 259.758 657.26C262.387 657.268 265.016 657.261 267.645 657.254C269.538 657.256 271.431 657.259 273.324 657.263C278.547 657.272 283.77 657.268 288.993 657.261C294.617 657.257 300.242 657.264 305.866 657.269C316.894 657.278 327.921 657.276 338.948 657.271C347.907 657.266 356.865 657.265 365.824 657.268C367.733 657.268 367.733 657.268 369.681 657.269C372.266 657.269 374.851 657.27 377.437 657.271C401.014 657.276 424.591 657.27 448.168 657.26C469.704 657.25 491.241 657.251 512.777 657.261C536.956 657.271 561.134 657.276 585.313 657.27C587.889 657.269 590.465 657.268 593.041 657.268C594.309 657.267 595.577 657.267 596.883 657.267C605.835 657.265 614.787 657.268 623.739 657.273C634.642 657.278 645.546 657.277 656.45 657.266C662.018 657.261 667.586 657.259 673.154 657.265C678.244 657.271 683.335 657.268 688.425 657.257C690.273 657.255 692.121 657.256 693.969 657.261C696.469 657.267 698.968 657.261 701.468 657.252C702.196 657.256 702.924 657.261 703.674 657.266C707.344 657.238 708.856 657.095 712 655C712.294 651.843 712.39 648.883 712.36 645.724C712.363 644.75 712.365 643.777 712.368 642.774C712.373 639.491 712.357 636.208 712.34 632.925C712.339 630.58 712.34 628.235 712.342 625.89C712.342 619.506 712.325 613.122 712.304 606.738C712.287 600.748 712.284 594.757 712.281 588.767C712.274 576.899 712.254 565.032 712.226 553.165C712.198 541.635 712.177 530.105 712.164 518.575C712.164 517.864 712.163 517.154 712.162 516.422C712.158 512.858 712.154 509.295 712.151 505.731C712.119 476.154 712.066 446.577 712 417C708.981 415.491 705.867 415.864 702.557 415.874C701.386 415.872 701.386 415.872 700.192 415.87C697.549 415.866 694.907 415.87 692.264 415.873C690.362 415.872 688.459 415.87 686.557 415.868C681.307 415.864 676.058 415.866 670.808 415.869C665.155 415.872 659.502 415.868 653.849 415.865C642.766 415.861 631.683 415.862 620.601 415.865C611.598 415.867 602.596 415.867 593.593 415.866C592.314 415.866 591.035 415.866 589.717 415.866C587.12 415.865 584.522 415.865 581.925 415.865C558.235 415.862 534.546 415.865 510.857 415.87C489.213 415.875 467.569 415.874 445.926 415.87C421.629 415.864 397.333 415.862 373.037 415.865C370.449 415.866 367.861 415.866 365.273 415.866C363.999 415.866 362.725 415.866 361.413 415.867C352.415 415.868 343.417 415.866 334.42 415.864C323.463 415.861 312.506 415.862 301.55 415.867C295.954 415.87 290.358 415.871 284.762 415.867C279.648 415.864 274.534 415.866 269.42 415.871C267.562 415.872 265.703 415.872 263.844 415.869C261.335 415.866 258.826 415.869 256.317 415.874C255.58 415.872 254.844 415.869 254.085 415.867C250.759 415.589 250.759 415.589 248 417Z" fill="#00FF00"/>
<path d="M328.998 182C338.238 182 347.478 182 356.998 182C356.998 193.22 356.998 204.44 356.998 216C357.658 216 358.318 216 358.998 216C360.286 217.304 360.286 217.304 361.842 219.207C366.56 224.751 371.678 229.866 376.823 235.01C378.5 236.689 380.169 238.377 381.838 240.064C382.922 241.152 384.007 242.238 385.092 243.324C385.581 243.82 386.07 244.316 386.573 244.827C390.114 248.345 393.88 251.178 397.998 254C398.83 253.592 399.661 253.183 400.518 252.762C403.641 251.232 406.767 249.706 409.894 248.183C411.24 247.527 412.585 246.868 413.929 246.208C415.876 245.252 417.825 244.303 419.776 243.355C421.528 242.499 421.528 242.499 423.315 241.626C427.432 239.809 431.729 238.423 435.998 237C435.998 229.41 435.998 221.82 435.998 214C444.578 214 453.158 214 461.998 214C461.998 221.189 461.85 227.607 460.791 234.602C460.666 235.473 460.541 236.345 460.412 237.243C460.01 240.038 459.598 242.832 459.186 245.625C458.627 249.485 458.074 253.346 457.522 257.207C457.387 258.148 457.252 259.089 457.112 260.059C455.925 268.377 454.895 276.706 454.025 285.063C453.194 292.603 451.618 299.442 449.998 307C378.718 307 307.438 307 233.998 307C227.014 261.601 227.014 261.601 224.982 245.362C224.608 242.38 224.224 239.399 223.838 236.418C223.592 234.477 223.345 232.535 223.1 230.594C222.988 229.724 222.875 228.855 222.759 227.959C222.659 227.144 222.558 226.329 222.454 225.49C222.366 224.788 222.277 224.087 222.186 223.364C221.939 220.252 221.998 217.122 221.998 214C231.238 214 240.478 214 249.998 214C249.998 221.59 249.998 229.18 249.998 237C252.968 237.99 255.938 238.98 258.998 240C261.135 240.92 263.256 241.878 265.354 242.883C266.471 243.41 267.588 243.937 268.739 244.48C271.049 245.583 273.359 246.687 275.668 247.793C276.781 248.318 277.895 248.842 279.041 249.383C280.042 249.861 281.043 250.34 282.073 250.833C285.133 252.054 287.707 252.799 290.998 253C292.799 252.065 292.799 252.065 294.092 250.371C294.637 249.761 295.182 249.151 295.744 248.522C296.323 247.834 296.902 247.146 297.498 246.438C301.984 241.217 306.455 236.513 311.834 232.195C320.799 224.735 328.444 218.326 329.623 206.254C330.183 198.138 329.695 190.092 328.998 182Z" fill="#00FF00"/>
<path d="M717.999 132C717.669 151.14 717.339 170.28 716.999 190C711.37 187.748 711.37 187.748 708.738 185.285C708.176 184.764 707.615 184.242 707.036 183.705C706.467 183.163 705.898 182.621 705.312 182.063C704.731 181.524 704.15 180.986 703.552 180.432C700.986 178.026 698.968 175.954 696.999 173C693.19 174.552 690.813 177.114 687.999 180C685.233 182.796 682.46 185.585 679.687 188.375C678.966 189.105 678.244 189.834 677.501 190.586C672.836 195.272 668.032 199.711 662.999 204C662.465 204.461 661.931 204.923 661.38 205.398C647.142 217.677 632.214 228.964 616.999 240C616.273 240.528 615.547 241.055 614.799 241.599C596.293 254.998 576.805 266.639 556.999 278C555.803 278.692 555.803 278.692 554.582 279.398C543.312 285.909 531.719 291.599 519.956 297.164C514.951 299.534 509.998 301.99 505.062 304.5C489.639 312.279 489.639 312.279 482.999 312C482.764 305.713 482.967 299.455 483.499 293.188C483.639 291.353 483.639 291.353 483.781 289.48C485.834 283.616 490.275 281.402 495.63 278.647C498.544 277.272 501.482 275.972 504.437 274.688C514.534 270.172 524.328 265.361 533.999 260C534.848 259.534 535.696 259.068 536.57 258.588C572.973 238.545 607.591 215.625 639.146 188.55C640.552 187.374 641.98 186.223 643.418 185.085C650.843 179.174 657.455 172.723 664.062 165.938C666.089 163.858 668.122 161.784 670.16 159.715C671.484 158.355 671.484 158.355 672.836 156.969C674.999 155 674.999 155 676.999 155C676.999 154.34 676.999 153.68 676.999 153C676.415 152.74 675.831 152.481 675.229 152.213C672.844 150.915 671.247 149.507 669.327 147.594C668.664 146.932 668 146.271 667.316 145.59C666.634 144.9 665.952 144.211 665.249 143.5C664.552 142.81 663.855 142.121 663.136 141.41C662.477 140.749 661.819 140.088 661.14 139.406C660.236 138.498 660.236 138.498 659.313 137.572C657.999 136 657.999 136 657.999 134C665.192 132.89 672.394 132.697 679.658 132.497C681.769 132.439 683.879 132.373 685.99 132.307C696.673 131.995 707.301 132 717.999 132Z" fill="#00FF00"/>
<path d="M332.001 456C338.601 456 345.201 456 352.001 456C352.001 461.61 352.001 467.22 352.001 473C354.394 473.268 356.786 473.536 359.251 473.812C366.351 474.655 373.096 476.101 380.001 478C380.001 485.26 380.001 492.52 380.001 500C370.001 497 370.001 497 366.376 495.832C355.12 492.432 340.947 490.225 329.704 494.961C326.476 496.931 324.964 498.707 323.001 502C322.472 505.77 322.678 508.133 324.001 511.688C328.669 517.085 336.118 518.832 342.814 520.562C343.603 520.776 344.392 520.989 345.204 521.209C348.537 522.108 351.872 522.969 355.228 523.773C365.424 526.271 376.534 531.229 382.501 540.273C387.55 549.137 388.164 557.961 387.001 568C384.279 577.506 378.229 584.351 369.775 589.305C364.381 591.916 358.885 593.005 353.001 594C352.671 599.94 352.341 605.88 352.001 612C345.401 612 338.801 612 332.001 612C332.001 606.06 332.001 600.12 332.001 594C329.361 594 326.721 594 324.001 594C321.767 593.68 321.767 593.68 320.036 593.23C319.053 592.98 319.053 592.98 318.05 592.725C317.394 592.547 316.739 592.37 316.064 592.188C315.086 591.939 315.086 591.939 314.089 591.686C308.955 590.35 304.057 588.685 299.001 587C299.001 578.75 299.001 570.5 299.001 562C303.07 563.628 306.758 565.408 310.626 567.438C320.51 572.397 328.669 574.246 339.689 574.375C340.58 574.389 341.472 574.403 342.39 574.418C349.544 574.365 355.003 573.061 361.001 568.938C363.506 565.258 363.725 562.817 363.478 558.434C362.701 554.466 361.008 552.631 358.001 550C352.009 546.261 345.556 544.679 338.751 543.062C311.056 536.111 311.056 536.111 303.064 523.938C298.579 516.335 298.12 508.636 299.001 500C301.436 490.728 305.657 484.279 313.802 479.281C319.94 475.974 325.035 474.232 332.001 474C332.001 468.06 332.001 462.12 332.001 456Z" fill="#00FF00"/>
<path d="M237 331C306.63 331 376.26 331 448 331C448 338.92 448 346.84 448 355C378.37 355 308.74 355 237 355C237 347.08 237 339.16 237 331Z" fill="#00FF00"/>
<path d="M663 475C672.9 475 682.8 475 693 475C693 526.81 693 578.62 693 632C683.1 632 673.2 632 663 632C663 580.19 663 528.38 663 475Z" fill="#00FF00"/>
<path d="M594 535C608.52 535 623.04 535 638 535C638 567.01 638 599.02 638 632C623.48 632 608.96 632 594 632C594 599.99 594 567.98 594 535Z" fill="#00FF00"/>
<path d="M525 585C538.86 585 552.72 585 567 585C567 600.84 567 616.68 567 633C553.14 633 539.28 633 525 633C525 617.16 525 601.32 525 585Z" fill="#00FF00"/>
<path d="M410 582C434.09 582 458.18 582 483 582C483 588.6 483 595.2 483 602C458.91 602 434.82 602 410 602C410 595.4 410 588.8 410 582Z" fill="#00FF00"/>
<path d="M410 582C434.09 582 458.18 582 483 582C483 588.6 483 595.2 483 602C458.91 602 434.82 602 410 602C410 595.4 410 588.8 410 582ZM412 584C412 589.28 412 594.56 412 600C434.77 600 457.54 600 481 600C481 594.72 481 589.44 481 584C458.23 584 435.46 584 412 584Z" fill="#00FF00"/>
<path d="M332 456C338.6 456 345.2 456 352 456C352 461.61 352 467.22 352 473C351.67 473 351.34 473 351 473C351 468.05 351 463.1 351 458C345.39 458 339.78 458 334 458C334 463.28 334 468.56 334 474C333.34 474.33 332.68 474.66 332 475C332 468.73 332 462.46 332 456Z" fill="#4BB475"/>
<path d="M358 217C365.797 223.346 372.69 230.628 379.748 237.769C388.566 246.715 388.566 246.715 398 255C397.505 255.99 397.505 255.99 397 257C388.966 249.996 381.389 242.575 373.855 235.041C371.849 233.037 369.835 231.041 367.82 229.045C366.544 227.771 365.268 226.497 363.992 225.223C363.389 224.627 362.786 224.031 362.165 223.417C358 219.229 358 219.229 358 217Z" fill="#4DB878"/>
<path d="M377 478C377.99 478 378.98 478 380 478C380 485.26 380 492.52 380 500C377.525 499.01 377.525 499.01 375 498C375.66 497.67 376.32 497.34 377 497C377 490.73 377 484.46 377 478Z" fill="#47AB6E"/>
<path d="M457.001 245C457.331 245 457.661 245 458.001 245C458.268 252.755 457.636 260.402 456.001 268C455.341 268.66 454.681 269.32 454.001 270C453.907 264.425 454.212 259.087 454.938 253.562C455.025 252.844 455.112 252.125 455.202 251.385C455.872 246.129 455.872 246.129 457.001 245Z" fill="#48A96F"/>
<path d="M607 729C610 730 610 730 611.175 731.792C612.055 734.148 612.231 735.824 612.195 738.328C612.189 739.127 612.182 739.927 612.176 740.75C612.159 741.575 612.142 742.4 612.125 743.25C612.111 744.511 612.111 744.511 612.098 745.797C612.074 747.865 612.038 749.932 612 752C609 750 609 750 608.583 748.168C608.564 747.444 608.544 746.719 608.523 745.973C608.492 745.181 608.462 744.388 608.43 743.572C608.412 742.744 608.394 741.916 608.375 741.062C608.324 739.428 608.269 737.794 608.211 736.16C608.193 735.434 608.176 734.709 608.158 733.961C608.061 731.786 608.061 731.786 607 729Z" fill="#409060"/>
<path d="M381 579C381.66 579.33 382.32 579.66 383 580C379.704 584.266 376.743 587.26 372 590C371.34 590 370.68 590 370 590C370 589.34 370 588.68 370 588C371.645 586.598 371.645 586.598 373.812 585.062C376.435 583.195 378.784 581.341 381 579Z" fill="#171314"/>
<path d="M301 517C302.753 519.279 304.322 521.533 305.812 524C308.305 527.419 310.401 528.873 314 531C313.01 531.33 312.02 531.66 311 532C306.104 528.667 303.56 525.317 301 520C301 519.01 301 518.02 301 517Z" fill="#4AB072"/>
<path d="M384 244C387.71 245.578 390.299 247.907 393.25 250.625C394.142 251.442 395.034 252.26 395.953 253.102C396.966 254.041 396.966 254.041 398 255C397.67 255.66 397.34 256.32 397 257C395.392 255.588 393.789 254.17 392.188 252.75C391.294 251.961 390.401 251.172 389.48 250.359C387.359 248.341 385.657 246.401 384 244Z" fill="#49AD72"/>
<path d="M620 237C620.99 237.33 621.98 237.66 623 238C618.71 240.97 614.42 243.94 610 247C609.34 246.67 608.68 246.34 608 246C609.623 244.685 611.249 243.373 612.875 242.062C613.78 241.332 614.685 240.601 615.617 239.848C618 238 618 238 620 237Z" fill="#171111"/>
<path d="M614 209C614 209.99 614 210.98 614 212C612.102 213.824 612.102 213.824 609.625 215.688C608.813 216.31 608.001 216.933 607.164 217.574C605 219 605 219 603 219C604.265 215.204 605.782 214.513 609.062 212.312C609.982 211.69 610.901 211.067 611.848 210.426C612.558 209.955 613.268 209.485 614 209Z" fill="#49AD71"/>
<path d="M298 245C298.99 245.33 299.98 245.66 301 246C298.03 248.97 295.06 251.94 292 255C291.34 254.67 290.68 254.34 290 254C292.64 251.03 295.28 248.06 298 245Z" fill="#4AB174"/>
<path d="M646 183C646.66 183.33 647.32 183.66 648 184C644.7 186.97 641.4 189.94 638 193C638 190 638 190 639.75 188.176C640.493 187.561 641.235 186.946 642 186.312C642.743 185.69 643.485 185.067 644.25 184.426C644.827 183.955 645.405 183.485 646 183Z" fill="#4BB275"/>
<path d="M230.999 280C231.329 280 231.659 280 231.999 280C233.137 284.266 233.999 287.565 233.999 292C233.339 292 232.679 292 231.999 292C231.038 289.118 230.893 287.301 230.936 284.312C230.945 283.504 230.954 282.696 230.964 281.863C230.975 281.248 230.987 280.634 230.999 280Z" fill="#48AE70"/>
<path d="M370 531C374.435 532.394 376.874 534.606 380 538C379.01 538.495 379.01 538.495 378 539C378 538.34 378 537.68 378 537C377.423 536.752 376.845 536.505 376.25 536.25C373.7 534.833 371.982 533.124 370 531Z" fill="#4AAE71"/>
<path d="M326 217C326.99 217.33 327.98 217.66 329 218C325.04 221.465 325.04 221.465 321 225C321 222 321 222 323.5 219.312C324.325 218.549 325.15 217.786 326 217Z" fill="#4AAC72"/>
<path d="M652 212C652.66 212.33 653.32 212.66 654 213C650.04 216.465 650.04 216.465 646 220C646 217 646 217 647.312 215.613C648.875 214.409 650.438 213.204 652 212Z" fill="#161011"/>
</g>
<defs>
<clipPath id="clip0_7066_3626">
<rect width="960" height="957" fill="white"/>
</clipPath>
</defs>
</svg>
